<svg xmlns="http://www.w3.org/2000/svg" viewBox="0 0 24 24" fill="#cfe3ff"><path d="M12 .5a11.5 11.5 0 0 0-3.64 22.43c.58.11.8-.25.8-.56v-2c-3.26.71-3.95-1.4-3.95-1.4-.53-1.34-1.3-1.69-1.3-1.69-1.06-.73.08-.72.08-.72 1.18.09 1.8 1.21 1.8 1.21 1.04 1.78 2.72 1.27 3.39.97.11-.77.41-1.27.75-1.56-2.61-.3-5.36-1.31-5.36-5.82 0-1.29.46-2.36 1.21-3.19-.12-.3-.52-1.52.11-3.17 0 0 .98-.31 3.2 1.22a11.1 11.1 0 0 1 5.82 0c2.22-1.53 3.2-1.22 3.2-1.22.63 1.65.23 2.87.12 3.17.76.83 1.21 1.9 1.21 3.19 0 4.52-2.76 5.52-5.39 5.81.42.37.79 1.1.79 2.22v3.29c0 .31.21.68.81.56A11.5 11.5 0 0 0 12 .5Z"/></svg>