<svg xmlns="http://www.w3.org/2000/svg" viewBox="0 0 24 24"><path fill="currentColor" d="M12 0C5.37 0 0 5.37 0 12c0 5.3 3.44 9.8 8.2 11.39.6.11.82-.26.82-.58 0-.29-.01-1.04-.02-2.05-3.34.73-4.05-1.61-4.05-1.61-.55-1.41-1.33-1.79-1.33-1.79-1.09-.74.08-.72.08-.72 1.2.09 1.83 1.23 1.83 1.23 1.07 1.83 2.81 1.3 3.5.99.11-.78.42-1.3.76-1.6-2.66-.3-5.46-1.33-5.46-5.9 0-1.3.47-2.36 1.23-3.19-.12-.3-.53-1.52.12-3.17 0 0 1-.32 3.3 1.22.95-.27 1.98-.4 3-.4s2.05.14 3 .4c2.3-1.54 3.3-1.22 3.3-1.22.65 1.65.24 2.87.12 3.17.77.83 1.23 1.89 1.23 3.19 0 4.59-2.8 5.6-5.47 5.9.43.37.81 1.11.81 2.24 0 1.61-.01 2.91-.01 3.3 0 .32.21.7.83.58C20.56 21.8 24 17.3 24 12c0-6.63-5.37-12-12-12z"/></svg>